<?xml version="1.0" encoding="UTF-8"?>
<svg width="539px" height="44px" viewBox="0 0 539 44" version="1.1" xmlns="http://www.w3.org/2000/svg"
     xmlns:xlink="http://www.w3.org/1999/xlink">
    <title>中国南山logo（文字调整3）</title>
    <defs>
        <filter id="filter-1">
            <feColorMatrix in="SourceGraphic" type="matrix"
                           values="0 0 0 0 1.000000 0 0 0 0 1.000000 0 0 0 0 1.000000 0 0 0 1.000000 0"></feColorMatrix>
        </filter>
    </defs>
    <g id="控件" stroke="none" stroke-width="1" fill="none" fill-rule="evenodd">
        <g id="顶部导航" transform="translate(-10.000000, -18.000000)">
            <g id="中国南山logo（文字调整3）" transform="translate(10.000000, 18.000000)">
                <g filter="url(#filter-1)" id="图形部分">
                    <g>
                        <path d="M25.6121412,16.5220518 L29.9997176,16.6404894 C29.9997176,16.6404894 34.3846024,17.1169318 34.5057318,21.7413835 C34.6268612,26.3658353 30.4465506,27.2325835 30.4465506,27.2325835 C30.4465506,27.2325835 29.1329694,27.3887059 28.3577412,27.3887059 C27.5825129,27.3887059 25.5744565,27.3456376 25.5744565,27.3456376 L25.4560188,29.4667482 L32.85568,29.3133176 C32.85568,29.3133176 37.4612894,29.0199153 38.9067671,24.4412235 C39.4819667,22.6054643 39.3865731,20.625094 38.6375906,18.85312 C36.6214588,14.0725459 31.2621553,14.5005365 31.2621553,14.5005365 L25.5556141,14.4251671 L25.6121412,16.5220518 Z"
                              id="路径" fill="#004E99" fill-rule="nonzero"></path>
                        <path d="M5.67424,25.1410824 C7.69037176,29.9216565 13.0496753,29.4936659 13.0496753,29.4936659 L18.1371106,29.56096 L18.1371106,37.6012612 C18.1427283,37.7091487 18.2123041,37.8032249 18.3138163,37.8401918 C18.4153285,37.8771586 18.529107,37.8498531 18.6027859,37.7708424 L25.7897976,29.0710588 C26.204741,28.5656946 26.204741,27.837543 25.7897976,27.3321788 L18.6027859,18.5543341 C18.5297666,18.4736833 18.4153771,18.4449177 18.3128936,18.4814348 C18.21041,18.5179519 18.1399851,18.6125709 18.1344188,18.7212235 L18.1344188,27.456 L14.3148047,27.3510212 C14.3148047,27.3510212 9.92992,26.8745788 9.80879059,22.2366682 C9.68766118,17.5987576 13.8679718,16.7454682 13.8679718,16.7454682 C13.8679718,16.7454682 15.1815529,16.5893459 15.9567812,16.5893459 C16.7320094,16.5893459 18.7400659,16.6324141 18.7400659,16.6324141 L18.8585035,14.5113035 L11.4588424,14.6647341 C11.4588424,14.6647341 6.84784941,14.9742871 5.41044706,19.5502871 C4.83335305,21.3862984 4.92683604,23.3675654 5.67424,25.1410824 Z"
                              id="路径" fill="#E4122A" fill-rule="nonzero"></path>
                        <path d="M25.7144282,6.22336 L18.5274165,14.9366024 C18.1124731,15.4419666 18.1124731,16.1701182 18.5274165,16.6754824 L25.7144282,25.4533271 C25.7874475,25.5339779 25.901837,25.5627435 26.0043206,25.5262264 C26.1068041,25.4897093 26.177229,25.3950903 26.1827953,25.2864376 L26.1827953,6.39294118 C26.1782458,6.28380649 26.1081959,6.18824138 26.0054911,6.15105518 C25.9027864,6.11386898 25.7877923,6.14243541 25.7144282,6.22336 Z"
                              id="路径" fill="#004E99" fill-rule="nonzero"></path>
                        <path d="M21.9971012,43.9942024 C9.84843766,43.9942024 -1.75960475e-13,34.1457647 -1.75960475e-13,21.9971012 C-1.75960475e-13,9.84843766 9.84843766,7.65045543e-15 21.9971012,7.65045543e-15 C34.1457647,7.65045543e-15 43.9942024,9.84843766 43.9942024,21.9971012 C43.9808509,34.14023 34.14023,43.9808509 21.9971012,43.9942024 L21.9971012,43.9942024 Z M21.9971012,0.538352941 C10.1457618,0.538352941 0.538352941,10.1457618 0.538352941,21.9971012 C0.538352941,33.8484406 10.1457618,43.4558494 21.9971012,43.4558494 C33.8484406,43.4558494 43.4558494,33.8484406 43.4558494,21.9971012 C43.4424987,10.1512962 33.8429061,0.551703683 21.9971012,0.538352941 Z"
                              id="形状" fill="#0B6189" fill-rule="nonzero"></path>
                    </g>
                </g>
                <g id="中国南山" transform="translate(54.352941, 8.627451)" fill="#FFFFFF" fill-rule="nonzero">
                    <path d="M17.1365826,2.66453526e-14 L17.1365826,3.39986741 L27.2302894,3.39986741 L27.4369407,3.40730462 C27.9090689,3.4420116 28.3107921,3.59819301 28.6421102,3.87584885 C29.0207594,4.19316981 29.210084,4.58755442 29.210084,5.05900271 L29.210084,5.05900271 L29.210084,18.2776872 L29.203072,18.4319824 C29.1656746,18.8358251 28.9786873,19.178778 28.6421102,19.4608411 C28.2634609,19.778162 27.792854,19.9368225 27.2302894,19.9368225 L27.2302894,19.9368225 L17.1365826,19.9368225 L17.1365826,25.512605 L12.0085901,25.512605 L12.0085901,19.9368225 L1.97979458,19.9368225 L1.77314338,19.9293853 C1.30101511,19.8946783 0.899291939,19.7384969 0.567973856,19.4608411 C0.189324619,19.1435201 -2.0783375e-13,18.7491355 -2.0783375e-13,18.2776872 L-2.0783375e-13,18.2776872 L-2.0783375e-13,5.05900271 L0.00701202292,4.90470749 C0.0444094785,4.5008648 0.231396756,4.15791192 0.567973856,3.87584885 C0.946623094,3.55852789 1.41723,3.39986741 1.97979458,3.39986741 L1.97979458,3.39986741 L12.0085901,3.39986741 L12.0085901,2.66453526e-14 L17.1365826,2.66453526e-14 Z M11.4621849,5.17647059 L5.28438744,5.17647059 L5.19183989,5.18422803 C5.10227775,5.1997429 5.02167183,5.23853009 4.95002211,5.30058959 C4.85448916,5.38333559 4.80672269,5.47987259 4.80672269,5.5902006 L4.80672269,5.5902006 L4.80672269,18.4434128 L4.8156789,18.523573 C4.83359133,18.6011474 4.8783724,18.6709644 4.95002211,18.7330239 C5.04555506,18.8157699 5.15701017,18.8571429 5.28438744,18.8571429 L5.28438744,18.8571429 L11.4621849,18.8571429 L11.4621849,5.17647059 Z M23.1907284,5.17647059 L17.0084034,5.17647059 L17.0084034,18.8571429 L23.1907284,18.8571429 C23.3168983,18.8571429 23.427297,18.8157699 23.5219244,18.7330239 C23.6165518,18.6502779 23.6638655,18.5537409 23.6638655,18.4434128 L23.6638655,18.4434128 L23.6638655,5.5902006 L23.6549942,5.51004041 C23.6372516,5.43246603 23.592895,5.36264909 23.5219244,5.30058959 C23.427297,5.21784359 23.3168983,5.17647059 23.1907284,5.17647059 L23.1907284,5.17647059 Z"
                          id="形状结合"></path>
                    <path d="M59.4001263,0.739495798 L59.6065928,0.746926527 C60.0782991,0.781603259 60.4796632,0.937648556 60.8106851,1.21506242 C61.1889959,1.53210683 61.3781513,1.92614774 61.3781513,2.39718515 L61.3781513,2.39718515 L61.3781513,23.4851678 L61.3711455,23.6393285 C61.3337815,24.0428193 61.1469613,24.3854733 60.8106851,24.6672905 C60.4323743,24.9843349 59.9621881,25.1428571 59.4001263,25.1428571 L59.4001263,25.1428571 L34.8855879,25.1428571 L34.6791215,25.1354264 C34.2074152,25.1007497 33.8060511,24.9447044 33.4750292,24.6672905 C33.0967184,24.3502461 32.907563,23.9562052 32.907563,23.4851678 L32.907563,23.4851678 L32.907563,2.39718515 L32.9145688,2.24302441 C32.9519328,1.83953367 33.1387529,1.49687967 33.4750292,1.21506242 C33.85334,0.898018005 34.3235262,0.739495798 34.8855879,0.739495798 L34.8855879,0.739495798 L59.4001263,0.739495798 Z M55.1935191,2.21848739 L38.7224473,2.21848739 L38.6228547,2.2250356 C38.4934696,2.24249749 38.3777039,2.29488314 38.2755577,2.38219257 C38.147875,2.49132936 38.0840336,2.6186556 38.0840336,2.76417132 L38.0840336,2.76417132 L38.0840336,23.1181816 L38.0916946,23.2033083 C38.1121238,23.3139003 38.1734115,23.4128509 38.2755577,23.5001604 C38.4032404,23.6092972 38.5522036,23.6638655 38.7224473,23.6638655 L38.7224473,23.6638655 L55.1935191,23.6638655 C55.3637628,23.6638655 55.512726,23.6092972 55.6404087,23.5001604 C55.7680914,23.3910236 55.8319328,23.2636973 55.8319328,23.1181816 L55.8319328,23.1181816 L55.8319328,2.76417132 L55.8242718,2.67904463 C55.8038426,2.56845268 55.7425549,2.469502 55.6404087,2.38219257 C55.512726,2.27305579 55.3637628,2.21848739 55.1935191,2.21848739 L55.1935191,2.21848739 Z"
                          id="形状结合"></path>
                    <path d="M52.7367475,21.0756303 C53.3010588,21.0756303 53.7731269,20.915994 54.1529517,20.5967216 C54.5327766,20.2774491 54.7226891,19.8806391 54.7226891,19.4062915 L54.7226891,19.4062915 L54.7226891,15.3834586 L51.1089266,15.3834586 L51.1089266,18.9957983 C51.1089266,19.1417514 51.0438138,19.2694604 50.9135881,19.3789253 C50.7833624,19.4883901 50.6314324,19.5431225 50.4577982,19.5431225 L50.4577982,19.5431225 L49.6438877,19.5431225 L49.6438877,13.5225564 L54.0715607,13.5225564 L54.0715607,11.9900487 L49.6438877,11.9900487 L49.6438877,5.96948253 L54.4622377,5.96948253 L54.4622377,4.43697479 L39.9095185,4.43697479 L39.9095185,5.96948253 L44.7278685,5.96948253 L44.7278685,11.9900487 L40.4955341,11.9900487 L40.4955341,13.5225564 L44.7278685,13.5225564 L44.7278685,19.5431225 L39.1932773,19.5431225 L39.1932773,21.0756303 L52.7367475,21.0756303 Z"
                          id="路径"></path>
                    <path d="M71.5403057,25.512605 L71.5403057,9.66965973 C71.5403057,9.56039804 71.5887907,9.46479405 71.6857609,9.38284779 C71.782731,9.30090152 71.8958628,9.25992838 72.0251563,9.25992838 L72.0251563,9.25992838 L88.4454319,9.25992838 C88.5747254,9.25992838 88.6878572,9.30090152 88.7848274,9.38284779 C88.8817975,9.46479405 88.9302826,9.56039804 88.9302826,9.66965973 L88.9302826,9.66965973 L88.9302826,23.57321 C88.9302826,23.6824717 88.8817975,23.7780757 88.7848274,23.860022 C88.6878572,23.9419682 88.5747254,23.9829414 88.4454319,23.9829414 L88.4454319,23.9829414 L84.857537,23.9829414 L85.8272384,25.512605 L92.0656501,25.512605 C92.625922,25.512605 93.094611,25.3532651 93.471717,25.0345851 C93.8488231,24.7159052 94.0373761,24.3198316 94.0373761,23.8463642 L94.0373761,23.8463642 L94.0373761,9.3965055 C94.0373761,8.92303817 93.8488231,8.52696453 93.471717,8.2082846 C93.094611,7.88960466 92.625922,7.7302647 92.0656501,7.7302647 L92.0656501,7.7302647 L82.7565175,7.7302647 L82.7565175,4.50704479 L95.394958,4.50704479 L95.394958,2.9773811 L82.7565175,2.9773811 L82.7565175,-7.10542736e-15 L77.6494239,-7.10542736e-15 L77.6494239,2.9773811 L65.0756303,2.9773811 L65.0756303,4.50704479 L77.6494239,4.50704479 L77.6494239,7.7302647 L68.4049381,7.7302647 C67.8446662,7.7302647 67.3759773,7.88960466 66.9988712,8.2082846 C66.6217651,8.52696453 66.4332121,8.92303817 66.4332121,9.3965055 L66.4332121,9.3965055 L66.4332121,25.512605 L71.5403057,25.512605 Z"
                          id="路径"></path>
                    <polygon id="路径"
                             points="82.8344965 25.1428571 82.8344965 20.9678752 88 20.9678752 88 19.4297239 82.8344965 19.4297239 82.8344965 15.8040816 87.3419741 15.8040816 87.3419741 14.2659304 85.9272183 14.2659304 87.4735793 10.7226891 82.439681 10.7226891 80.89332 14.2659304 79.6101695 14.2659304 78.0309073 10.7226891 72.997009 10.7226891 74.5762712 14.2659304 73.1286142 14.2659304 73.1286142 15.8040816 77.6360917 15.8040816 77.6360917 19.4297239 72.4705882 19.4297239 72.4705882 20.9678752 77.6360917 20.9678752 77.6360917 25.1428571"></polygon>
                    <path d="M125.952126,25.1428571 C126.514933,25.1428571 126.985742,24.983955 127.364555,24.6661508 C127.743367,24.3483465 127.932773,23.9533612 127.932773,23.4811949 L127.932773,23.4811949 L127.932773,2.09750813 L122.802572,2.09750813 L122.802572,23.2087912 C122.802572,23.3177527 122.753867,23.4130939 122.656458,23.494815 C122.55905,23.5765361 122.445406,23.6173967 122.315527,23.6173967 L122.315527,23.6173967 L115.724193,23.6173967 L115.724193,-1.42108547e-14 L110.593991,-1.42108547e-14 L110.593991,23.6173967 L103.970187,23.6173967 C103.840308,23.6173967 103.726665,23.5765361 103.629256,23.494815 C103.531847,23.4130939 103.483143,23.3177527 103.483143,23.2087912 L103.483143,23.2087912 L103.483143,2.09750813 L98.3529412,2.09750813 L98.3529412,23.4811949 C98.3529412,23.9533612 98.5423473,24.3483465 98.9211597,24.6661508 C99.299972,24.983955 99.7707816,25.1428571 100.333589,25.1428571 L100.333589,25.1428571 L125.952126,25.1428571 Z"
                          id="路径"></path>
                </g>
                <path d="M215.073052,17.8711485 L215.073052,13.9253313 C215.073052,13.7597726 215.142907,13.6172081 215.282616,13.4976379 C215.422326,13.3780676 215.588903,13.3182825 215.782347,13.3182825 L215.782347,13.3182825 L233.353535,13.3182825 C233.546979,13.3182825 233.713556,13.3780676 233.853266,13.4976379 C233.992976,13.6172081 234.06283,13.7597726 234.06283,13.9253313 L234.06283,13.9253313 L234.06283,17.8711485 L239.156863,17.8711485 L239.156863,13.5114344 C239.156863,13.0331536 238.963418,12.6284544 238.57653,12.2973368 C238.189641,11.9662193 237.716778,11.8006606 237.157939,11.8006606 L237.157939,11.8006606 L227.67917,11.8006606 L226.80867,8.62745098 L221.32775,8.62745098 L222.198249,11.8006606 L212.106906,11.8006606 C211.50508,11.8006606 210.994602,11.9800159 210.575473,12.3387265 C210.156343,12.6974372 209.946779,13.1251306 209.946779,13.6218069 L209.946779,13.6218069 L209.946779,17.8711485 L215.073052,17.8711485 Z"
                      id="路径" fill="#FFFFFF" fill-rule="nonzero"></path>
                <path d="M218.239696,18.9803922 L218.239696,21.2105354 L231.233693,21.2105354 L231.233693,18.9803922 L236.340787,18.9803922 L236.340787,21.2105354 L239.896359,21.2105354 L239.896359,22.73356 L236.340787,22.73356 L236.340787,26.8130902 L236.333969,26.9805209 C236.302151,27.3652433 236.158968,27.7083205 235.904421,28.0097524 C235.613511,28.3542461 235.220243,28.5990179 234.724618,28.7440679 L234.724618,28.7440679 L229.617525,30.5118643 L235.435733,32.5788263 L235.582983,32.6301981 C235.678756,32.6624315 235.769741,32.6906356 235.855936,32.7148106 C235.98523,32.7510731 236.136072,32.7692044 236.308464,32.7692044 L236.308464,32.7692044 L239.896359,32.9867793 L239.896359,34.5098039 L230.005405,33.8026853 L229.556918,33.744892 L229.556918,33.744892 L229.116512,33.6802994 C228.825602,33.6349713 228.540079,33.5579135 228.259943,33.4491261 L228.259943,33.4491261 L224.736695,32.225267 L221.213447,33.4491261 L220.988193,33.5247674 C220.76395,33.5944593 220.542736,33.6463034 220.324554,33.6802994 C220.033643,33.7256276 219.737346,33.7664229 219.435661,33.8026853 L219.435661,33.8026853 L209.577031,34.5098039 L209.577031,32.9867793 L213.164926,32.7692044 L213.330134,32.7631606 C213.435484,32.7551023 213.531257,32.7389856 213.617453,32.7148106 C213.746746,32.6785481 213.886814,32.63322 214.037657,32.5788263 L214.037657,32.5788263 L219.855865,30.5118643 L214.748771,28.7440679 L214.542627,28.6757982 C214.142873,28.5270479 213.81832,28.3050327 213.568968,28.0097524 C213.278057,27.6652587 213.132602,27.2663713 213.132602,26.8130902 L213.132602,26.8130902 L213.132602,22.73356 L209.577031,22.73356 L209.577031,21.2105354 L213.132602,21.2105354 L213.132602,18.9803922 L218.239696,18.9803922 Z M231.022409,22.6778711 L218.081232,22.6778711 L218.081232,26.0321312 L218.088784,26.1532312 C218.129057,26.4650288 218.330422,26.6877414 218.69288,26.8213689 L218.69288,26.8213689 L224.551821,28.9635854 L230.410761,26.8213689 L230.539132,26.7670827 C230.861317,26.6111839 231.022409,26.3662001 231.022409,26.0321312 L231.022409,26.0321312 L231.022409,22.6778711 Z"
                      id="形状结合" fill="#FFFFFF" fill-rule="nonzero"></path>
                <path d="M267.129198,8.99719888 L267.364697,9.00497694 C267.826459,9.03608916 268.23281,9.16053806 268.58375,9.37832364 C268.993179,9.63240681 269.28409,9.96815957 269.456481,10.3855819 L269.456481,10.3855819 L271.783764,16.5652476 L271.818726,16.6558064 C271.903163,16.8313683 272.074675,16.9735956 272.333262,17.0824884 L272.333262,17.0824884 L273.173669,17.3547203 L273.173669,18.9881122 L269.618098,17.8175147 L269.618098,19.1786745 L260.599876,19.1786745 L260.599876,24.9499923 L271.880734,24.9499923 L271.880734,26.4744913 L260.599876,26.4744913 L260.599876,32.2458091 L273.173669,32.2458091 L273.173669,33.7703081 L242.854342,33.7703081 L242.854342,32.2458091 L255.492782,32.2458091 L255.492782,26.4744913 L244.147277,26.4744913 L244.147277,24.9499923 L255.492782,24.9499923 L255.492782,19.1786745 L246.409913,19.1786745 L246.409913,17.8447379 L242.854342,18.9881122 L242.854342,17.3547203 L243.856366,17.0008188 L243.978404,16.9574839 C244.207966,16.8619249 244.350452,16.7130307 244.405864,16.5108012 L244.405864,16.5108012 L246.733147,10.3855819 L246.814285,10.2116868 C246.991074,9.87389694 247.254939,9.59610921 247.605878,9.37832364 C248.015308,9.12424047 248.489384,8.99719888 249.028107,8.99719888 L249.028107,8.99719888 L267.129198,8.99719888 Z M263.158042,10.8459384 L252.195341,10.8459384 L252.067632,10.8534798 C251.94195,10.8685625 251.82235,10.9062694 251.708831,10.9666004 C251.557472,11.0470417 251.46017,11.1587658 251.416925,11.3017726 L251.416925,11.3017726 L249.503317,15.9673702 L249.431242,16.1420321 C249.299103,16.4263078 249.106901,16.6764456 248.854637,16.8924455 C248.551919,17.1516454 248.184333,17.3527487 247.75188,17.4957556 L247.75188,17.4957556 L246.551821,17.8711485 L268.736695,17.8711485 L267.56907,17.4957556 L267.364105,17.4156866 C266.634039,17.1070799 266.140171,16.6332457 265.8825,15.9941839 L265.8825,15.9941839 L263.936459,11.3017726 L263.904025,11.2197225 C263.85213,11.1153275 263.76564,11.0309535 263.644553,10.9666004 C263.493194,10.886159 263.331024,10.8459384 263.158042,10.8459384 L263.158042,10.8459384 Z"
                      id="形状结合" fill="#FFFFFF" fill-rule="nonzero"></path>
                <polygon id="路径" fill="#FFFFFF" fill-rule="nonzero"
                         points="306.081232 33.4005602 306.081232 31.8794044 294.121583 31.8794044 294.121583 24.2464617 304.465064 24.2464617 304.465064 22.7253059 294.121583 22.7253059 294.121583 15.1466903 305.273148 15.1195268 305.273148 13.6255344 294.121583 13.6255344 294.121583 8.62745098 289.014489 8.62745098 289.014489 13.6255344 282.743754 13.6255344 283.907396 9.76831785 278.800302 9.76831785 275.761905 19.9546292 280.868998 19.9546292 282.291227 15.1738538 289.014489 15.1466903 289.014489 22.7253059 277.378074 22.7253059 277.378074 24.2464617 289.014489 24.2464617 289.014489 31.8794044 275.761905 31.8794044 275.761905 33.4005602"></polygon>
                <polygon id="路径" fill="#FFFFFF" fill-rule="nonzero"
                         points="337.509804 12.32493 337.509804 10.7911609 326.967204 10.7911609 326.014559 8.62745098 320.997298 8.62745098 321.949942 10.7911609 310.518207 10.7911609 310.518207 12.32493"></polygon>
                <path d="M308.669468,34.5098039 L314.326059,32.1076833 C314.821684,31.9075066 315.209564,31.611791 315.4897,31.2205365 C315.769836,30.829282 315.909904,30.3970823 315.909904,29.9239374 L315.909904,29.9239374 L315.909904,22.2535296 C315.909904,22.1443423 315.958389,22.0488034 316.055359,21.9669129 C316.15233,21.8850225 316.265461,21.8440772 316.394755,21.8440772 L316.394755,21.8440772 L338.988796,21.8440772 L338.988796,20.315455 L332.362503,20.315455 L335.433224,14.1736695 L330.32613,14.1736695 L327.25541,20.315455 L320.984674,20.315455 L317.913954,14.1736695 L312.80686,14.1736695 L315.877581,20.315455 L312.774537,20.315455 C312.214265,20.315455 311.745576,20.4746865 311.36847,20.7931495 C310.991364,21.1116124 310.802811,21.5074164 310.802811,21.9805614 L310.802811,21.9805614 L310.802811,31.2068881 C310.802811,31.4798564 310.651968,31.698231 310.350283,31.8620119 L310.350283,31.8620119 L308.669468,32.6536198 L308.669468,34.5098039 Z"
                      id="路径" fill="#FFFFFF" fill-rule="nonzero"></path>
                <path d="M341.577031,14.9131653 L346.180278,14.4984947 C346.615574,14.4616351 346.991016,14.3418414 347.306605,14.1391136 C347.622194,13.9363858 347.867047,13.6599387 348.041166,13.3097725 L348.041166,13.3097725 L348.857344,11.6234456 L349.70617,11.6234456 L351.175291,14.8855206 L356.007069,14.8855206 L354.537947,11.6234456 L357.47619,11.6234456 L357.47619,10.0753423 L349.608229,10.0753423 L350.130583,8.99719888 L344.972334,8.99719888 L343.046152,12.9780361 C342.980858,13.1623341 342.828505,13.2544831 342.589092,13.2544831 L342.589092,13.2544831 L341.577031,13.3650619 L341.577031,14.9131653 Z"
                      id="路径" fill="#FFFFFF" fill-rule="nonzero"></path>
                <path d="M357.106443,14.9131653 L361.57192,14.4984947 C361.994188,14.4616351 362.358393,14.3418414 362.664537,14.1391136 C362.970681,13.9363858 363.208207,13.6599387 363.377114,13.3097725 L363.377114,13.3097725 L364.168865,11.6234456 L365.499007,11.6234456 L366.92416,14.8855206 L371.611328,14.8855206 L370.186176,11.6234456 L371.896359,11.6234456 L371.896359,10.0753423 L364.897276,10.0753423 L365.403997,8.99719888 L360.400128,8.99719888 L358.531595,12.9780361 C358.468255,13.1623341 358.320461,13.2544831 358.088214,13.2544831 L358.088214,13.2544831 L357.106443,13.3650619 L357.106443,14.9131653 Z"
                      id="路径" fill="#FFFFFF" fill-rule="nonzero"></path>
                <path d="M359.150931,14.9131653 L359.705553,16.5706558 L369.134124,16.5706558 L369.342107,16.5784253 C369.817886,16.6146829 370.227056,16.7778422 370.569616,17.067903 C370.961114,17.3994011 371.156863,17.8045655 371.156863,18.2833961 L371.156863,18.2833961 L371.156863,21.0735053 L368.188005,21.0735053 L368.366082,21.1437184 C368.651549,21.2703323 368.880376,21.4449059 369.052562,21.6674394 C369.259186,21.9344795 369.362498,22.2521652 369.362498,22.6204965 L369.362498,22.6204965 L369.362498,24.6923597 L369.355449,24.849071 C369.317857,25.2592374 369.129895,25.6075605 368.791564,25.8940404 C368.410941,26.2163302 367.937881,26.3774751 367.372384,26.3774751 L367.372384,26.3774751 L349.689735,26.3774751 L349.689735,28.6979619 L367.861756,28.6979619 L368.069485,28.7055156 C368.544074,28.7407661 368.947891,28.8993931 369.280936,29.1813967 C369.661559,29.5036865 369.85187,29.9042468 369.85187,30.3830774 L369.85187,30.3830774 L369.85187,32.4549406 L369.844822,32.6116519 C369.807229,33.0218183 369.619267,33.3701414 369.280936,33.6566213 C368.900313,33.9789111 368.427253,34.140056 367.861756,34.140056 L367.861756,34.140056 L346.525128,34.140056 L346.317399,34.1325024 C345.84281,34.0972519 345.438993,33.9386249 345.105948,33.6566213 C344.725325,33.3343314 344.535014,32.9337712 344.535014,32.4549406 L344.535014,32.4549406 L344.535014,22.6204965 L344.541339,22.465741 C344.56664,22.1624315 344.667844,21.8963309 344.84495,21.6674394 C345.051574,21.4003992 345.339759,21.2024212 345.709507,21.0735053 L345.709507,21.0735053 L342.316527,21.0735053 L342.316527,18.3938955 L342.324381,18.2307043 C342.366269,17.8023487 342.575713,17.4285607 342.95271,17.1093403 C343.376833,16.7502173 343.893393,16.5706558 344.502389,16.5706558 L344.502389,16.5706558 L354.159334,16.5706558 L353.604712,14.9131653 L359.150931,14.9131653 Z M364.388869,30.0728291 L350.081232,30.0728291 L350.081232,31.8998188 L350.090275,31.9756714 C350.108361,32.0490773 350.153574,32.1151425 350.225916,32.1738672 C350.322372,32.2521667 350.434904,32.2913165 350.563512,32.2913165 L350.563512,32.2913165 L364.388869,32.2913165 C364.517477,32.2913165 364.630009,32.2521667 364.726464,32.1738672 C364.82292,32.0955676 364.871148,32.0042182 364.871148,31.8998188 L364.871148,31.8998188 L364.871148,30.4643269 L364.862106,30.3884742 C364.84402,30.3150684 364.798806,30.2490031 364.726464,30.1902785 C364.630009,30.1119789 364.517477,30.0728291 364.388869,30.0728291 L364.388869,30.0728291 Z M364.015327,22.6778711 L350.567306,22.6778711 L350.473129,22.6852117 C350.38199,22.6998929 350.299965,22.7365958 350.227054,22.7953205 C350.12984,22.87362 350.081232,22.9649695 350.081232,23.0693689 L350.081232,23.0693689 L350.081232,24.8963585 L364.015327,24.8963585 C364.144947,24.8963585 364.258364,24.8572088 364.355579,24.7789092 C364.452793,24.7006097 364.501401,24.6092602 364.501401,24.5048608 L364.501401,24.5048608 L364.501401,23.0693689 L364.492287,22.9935162 C364.474059,22.9201104 364.42849,22.8540451 364.355579,22.7953205 C364.258364,22.7170209 364.144947,22.6778711 364.015327,22.6778711 L364.015327,22.6778711 Z M365.277415,18.6106443 L348.565723,18.6106443 L348.453885,18.6171777 C348.309029,18.6346001 348.181215,18.6868674 348.070443,18.7739795 C347.931978,18.8828697 347.862745,19.0127002 347.862745,19.1634712 L347.862745,19.1634712 L347.862745,21.1988796 L365.980392,21.1988796 L365.980392,19.1634712 L365.972084,19.0755215 C365.94993,18.9616056 365.883466,18.8610916 365.772694,18.7739795 C365.634229,18.6650893 365.469136,18.6106443 365.277415,18.6106443 L365.277415,18.6106443 Z"
                      id="形状结合" fill="#FFFFFF" fill-rule="nonzero"></path>
                <path d="M402.259489,8.99719888 L402.464564,9.00456982 C402.933089,9.03896756 403.331747,9.19375737 403.660537,9.46893926 C404.036297,9.78343285 404.224177,10.1743035 404.224177,10.6415511 L404.224177,10.6415511 L404.224177,20.6694038 L404.217219,20.8223242 C404.180107,21.2225686 403.994546,21.5624657 403.660537,21.8420156 C403.284777,22.1565092 402.817761,22.313756 402.259489,22.313756 L402.259489,22.313756 L398.104656,22.313756 L398.104656,26.4381147 L404.224177,26.4381147 L404.224177,27.9746406 L398.104656,27.9746406 L398.104656,32.2337823 L404.803922,32.2337823 L404.803922,33.7703081 L386.316527,33.7703081 L386.316527,32.2337823 L393.015792,32.2337823 L393.015792,27.9746406 L386.896271,27.9746406 L386.896271,26.4381147 L393.015792,26.4381147 L393.015792,22.313756 L388.860959,22.313756 L388.655885,22.306385 C388.187359,22.2719873 387.788701,22.1171975 387.459911,21.8420156 C387.084151,21.527522 386.896271,21.1366514 386.896271,20.6694038 L386.896271,20.6694038 L386.896271,10.6415511 L386.903229,10.4886306 C386.940341,10.0883862 387.125902,9.74848912 387.459911,9.46893926 C387.835671,9.15444567 388.302687,8.99719888 388.860959,8.99719888 L388.860959,8.99719888 L402.259489,8.99719888 Z M392.971989,16.3921569 L391.492997,16.3921569 L391.492997,20.4208211 L391.500997,20.4999313 C391.516995,20.5764895 391.556992,20.6453919 391.620987,20.7066385 C391.706313,20.7883006 391.805861,20.8291317 391.919629,20.8291317 L391.919629,20.8291317 L392.971989,20.8291317 L392.971989,16.3921569 Z M398.887955,16.3921569 L397.408964,16.3921569 L397.408964,20.8291317 L398.461323,20.8291317 C398.575092,20.8291317 398.674639,20.7883006 398.759966,20.7066385 C398.845292,20.6249764 398.887955,20.5297039 398.887955,20.4208211 L398.887955,20.4208211 L398.887955,16.3921569 Z M392.971989,10.8459384 L391.919629,10.8459384 L391.836969,10.8536415 C391.756976,10.8690476 391.684982,10.907563 391.620987,10.9691877 C391.53566,11.0513539 391.492997,11.1472144 391.492997,11.2567694 L391.492997,11.2567694 L391.492997,15.2829132 L392.971989,15.2829132 L392.971989,10.8459384 Z M398.461323,10.8459384 L397.408964,10.8459384 L397.408964,15.2829132 L398.887955,15.2829132 L398.887955,11.2567694 L398.879956,11.1771709 C398.863957,11.1001401 398.82396,11.0308123 398.759966,10.9691877 C398.674639,10.8870215 398.575092,10.8459384 398.461323,10.8459384 L398.461323,10.8459384 Z"
                      id="形状结合" fill="#FFFFFF" fill-rule="nonzero"></path>
                <polygon id="路径" fill="#FFFFFF" fill-rule="nonzero"
                         points="374.114846 33.7703081 385.577031 31.9906155 385.577031 30.345748 382.478242 30.8311187 382.478242 21.1237043 385.243828 21.1237043 385.243828 19.613662 382.478242 19.613662 382.478242 10.876989 385.577031 10.876989 385.577031 9.36694678 374.114846 9.36694678 374.114846 10.876989 377.213634 10.876989 377.213634 19.613662 374.448049 19.613662 374.448049 21.1237043 377.213634 21.1237043 377.213634 31.64007 374.114846 32.1254407"></polygon>
                <path d="M416.455135,34.140056 L416.455135,17.639908 L413.267617,17.639908 L413.557391,17.5854521 C414.051081,17.4946922 414.491109,17.3177104 414.877475,17.0545068 C415.26384,16.7913031 415.553615,16.4509535 415.746798,16.033458 L415.746798,16.033458 L419.22409,8.62745098 L414.040349,8.62745098 L410.369874,16.1151419 C410.155226,16.4781815 409.843987,16.6960052 409.436156,16.7686131 L409.436156,16.7686131 L407.761905,17.0953487 L407.761905,18.6201149 L411.367985,17.9666436 L411.367985,34.140056 L416.455135,34.140056 Z"
                      id="路径" fill="#FFFFFF" fill-rule="nonzero"></path>
                <polygon id="路径" fill="#FFFFFF" fill-rule="nonzero"
                         points="438.081232 12.6946779 438.081232 11.1238868 430.947128 11.1238868 430.083358 8.62745098 425.028701 8.62745098 425.892471 11.1238868 418.854342 11.1238868 418.854342 12.6946779"></polygon>
                <polygon id="路径" fill="#FFFFFF" fill-rule="nonzero"
                         points="436.971989 17.1316527 436.971989 15.6526611 419.22409 15.6526611 419.22409 17.1316527"></polygon>
                <polygon id="路径" fill="#FFFFFF" fill-rule="nonzero"
                         points="436.971989 21.9383754 436.971989 20.4593838 419.22409 20.4593838 419.22409 21.9383754"></polygon>
                <path d="M435.358913,24.5266106 L435.56588,24.53423 C436.038731,24.569787 436.441069,24.7297934 436.772894,25.0142492 C437.152122,25.3393415 437.341737,25.7433849 437.341737,26.2263792 L437.341737,26.2263792 L437.341737,32.4402874 L437.334714,32.5983614 C437.297259,33.0120945 437.109986,33.3634465 436.772894,33.6524175 C436.393665,33.9775098 435.922338,34.140056 435.358913,34.140056 L435.358913,34.140056 L421.576661,34.140056 L421.369694,34.1324367 C420.896843,34.0968797 420.494505,33.9368733 420.16268,33.6524175 C419.783452,33.3273251 419.593838,32.9232818 419.593838,32.4402874 L419.593838,32.4402874 L419.593838,26.2263792 L419.60086,26.0683052 C419.638315,25.6545722 419.825588,25.3032202 420.16268,25.0142492 C420.541909,24.6891568 421.013236,24.5266106 421.576661,24.5266106 L421.576661,24.5266106 L435.358913,24.5266106 Z M431.337352,26.3753501 L425.228474,26.3753501 L425.139704,26.3833838 C425.053798,26.3994512 424.976483,26.4396196 424.907758,26.5038891 C424.816125,26.5895818 424.770308,26.6895565 424.770308,26.8038134 L424.770308,26.8038134 L424.770308,32.6023491 L424.778899,32.6853638 C424.79608,32.7657007 424.839033,32.8380039 424.907758,32.9022734 C424.999391,32.987966 425.106296,33.0308123 425.228474,33.0308123 L425.228474,33.0308123 L431.337352,33.0308123 C431.45953,33.0308123 431.566435,32.987966 431.658068,32.9022734 C431.749702,32.8165807 431.795518,32.716606 431.795518,32.6023491 L431.795518,32.6023491 L431.795518,26.8038134 L431.786928,26.7207986 C431.769746,26.6404618 431.726793,26.5681586 431.658068,26.5038891 C431.566435,26.4181965 431.45953,26.3753501 431.337352,26.3753501 L431.337352,26.3753501 Z"
                      id="形状结合" fill="#FFFFFF" fill-rule="nonzero"></path>
                <path d="M454.916231,8.99719888 L453.745056,10.9188464 L466.469706,10.9188464 L466.671248,10.9261443 C467.131706,10.9602013 467.523498,11.1134577 467.846626,11.3859135 C468.215916,11.6972916 468.40056,12.0842901 468.40056,12.5469089 L468.40056,12.5469089 L468.40056,22.5288003 L468.393722,22.6802058 C468.357249,23.0764852 468.174884,23.4130151 467.846626,23.6897956 C467.477337,24.0011737 467.018364,24.1568627 466.469706,24.1568627 L466.469706,24.1568627 L444.81881,24.1568627 L444.617267,24.1495648 C444.15681,24.1155078 443.765017,23.9622514 443.441889,23.6897956 C443.0726,23.3784176 442.887955,22.9914191 442.887955,22.5288003 L442.887955,22.5288003 L442.887955,12.5469089 L442.894794,12.3955034 C442.931267,11.999224 443.113632,11.662694 443.441889,11.3859135 C443.811178,11.0745354 444.270152,10.9188464 444.81881,10.9188464 L444.81881,10.9188464 L448.743826,10.9188464 L449.915,8.99719888 L454.916231,8.99719888 Z M463.593838,20.4593838 L447.694678,20.4593838 L447.694678,22.3121864 L447.703804,22.3830378 C447.722055,22.4516037 447.767684,22.513313 447.840691,22.5681657 C447.938032,22.6413027 448.051598,22.6778711 448.181387,22.6778711 L448.181387,22.6778711 L463.107129,22.6778711 C463.236918,22.6778711 463.350483,22.6413027 463.447825,22.5681657 C463.545167,22.4950288 463.593838,22.4097023 463.593838,22.3121864 L463.593838,22.3121864 L463.593838,20.4593838 Z M463.593838,16.3921569 L447.694678,16.3921569 L447.694678,18.6106443 L463.593838,18.6106443 L463.593838,16.3921569 Z M463.107129,12.32493 L448.181387,12.32493 L448.087087,12.3318627 C447.995829,12.3457283 447.913697,12.3803922 447.840691,12.4358543 C447.743349,12.5098039 447.694678,12.5960784 447.694678,12.6946779 L447.694678,12.6946779 L447.694678,14.5434174 L463.593838,14.5434174 L463.593838,12.6946779 L463.584712,12.6230392 C463.56646,12.5537115 463.520831,12.4913165 463.447825,12.4358543 C463.350483,12.3619048 463.236918,12.32493 463.107129,12.32493 L463.107129,12.32493 Z"
                      id="形状结合" fill="#FFFFFF" fill-rule="nonzero"></path>
                <polygon id="路径" fill="#FFFFFF" fill-rule="nonzero"
                         points="462.114846 31.9215686 460.673731 25.6358543 455.829132 25.6358543 457.270247 31.9215686"></polygon>
                <path d="M463.351904,34.140056 L464.333333,32.6458171 L454.093751,32.6458171 C453.962894,32.6458171 453.848394,32.6057928 453.750251,32.5257443 C453.652108,32.4456958 453.603036,32.3523059 453.603036,32.2455745 L453.603036,32.2455745 L453.603036,26.3753501 L448.434174,26.3753501 L448.434174,32.5124029 C448.434174,32.9749054 448.625007,33.3618066 449.006674,33.6731064 C449.388341,33.9844061 449.862699,34.140056 450.429747,34.140056 L450.429747,34.140056 L463.351904,34.140056 Z"
                      id="路径" fill="#FFFFFF" fill-rule="nonzero"></path>
                <polygon id="路径" fill="#FFFFFF" fill-rule="nonzero"
                         points="445.355311 34.5098039 446.955182 27.1148459 441.899591 27.1148459 440.29972 34.5098039"></polygon>
                <polygon id="路径" fill="#FFFFFF" fill-rule="nonzero"
                         points="470.2493 34.5098039 468.649429 27.1148459 463.593838 27.1148459 465.193708 34.5098039"></polygon>
                <path d="M489.358264,34.140056 C489.91896,34.140056 490.388003,33.9810565 490.765395,33.6630575 C491.142786,33.3450585 491.331481,32.9498312 491.331481,32.4773756 L491.331481,32.4773756 L491.331481,23.4280328 L497.315829,23.1009481 L498.286263,24.7908856 L503.397219,24.7908856 L499.838959,18.4945055 L494.728003,18.4945055 L496.474785,21.5745529 L484.66783,22.1742081 C484.430613,22.1923795 484.247308,22.1651225 484.117917,22.092437 C483.988526,22.0197515 483.907656,21.9288946 483.875308,21.8198664 C483.84296,21.7108382 483.864526,21.5972671 483.940004,21.4791532 C484.015482,21.3610393 484.150265,21.2565539 484.344352,21.165697 L484.344352,21.165697 L501.326959,13.7517776 L494.17809,13.7517776 L487.061569,16.6410256 L484.3767,16.7500539 C484.139482,16.7500539 483.950787,16.718254 483.810613,16.6546542 C483.670439,16.5910544 483.584178,16.5047404 483.55183,16.3957121 C483.519482,16.2866839 483.541047,16.1731128 483.616526,16.0549989 C483.692004,15.936885 483.837569,15.8323996 484.053221,15.7415428 L484.053221,15.7415428 L493.72522,11.3804137 L499.903654,11.3804137 C500.399654,11.3804137 500.863307,11.285014 501.294611,11.0942146 C501.725915,10.9034152 502.070959,10.6263018 502.329741,10.2628744 L502.329741,10.2628744 L503.526611,8.62745098 L498.318611,8.62745098 L497.671655,9.52693385 C497.499133,9.76316167 497.251133,9.88127559 496.927655,9.88127559 L496.927655,9.88127559 L474.316527,9.88127559 L474.316527,11.3804137 L486.414612,11.3804137 L476.580874,15.5234863 C476.041744,15.7415428 475.669744,16.0322847 475.464874,16.3957121 C475.260005,16.7591396 475.206092,17.1043956 475.303135,17.4314803 C475.400179,17.758565 475.642787,18.0402212 476.030961,18.276449 C476.419135,18.5126769 476.925918,18.6126194 477.551309,18.5762767 L477.551309,18.5762767 L482.824004,18.3309632 L476.225048,21.0021547 C475.685918,21.2202112 475.319309,21.5200388 475.125222,21.9016376 C474.931135,22.2832364 474.888005,22.6512066 474.995831,23.0055484 C475.103657,23.3598901 475.346266,23.6642606 475.723657,23.9186598 C476.101048,24.173059 476.602439,24.2820872 477.227831,24.2457445 L477.227831,24.2457445 L486.220525,23.7278604 L486.220525,32.204805 C486.220525,32.3138332 486.172004,32.4092329 486.07496,32.4910041 C485.977917,32.5727753 485.864699,32.6136608 485.735308,32.6136608 L485.735308,32.6136608 L481.562439,32.6136608 L482.532874,34.140056 L489.358264,34.140056 Z"
                      id="路径" fill="#FFFFFF" fill-rule="nonzero"></path>
                <path d="M472.837535,33.7703081 L478.678043,32.1763949 C479.062882,32.0664698 479.396787,31.9061625 479.679758,31.6954728 C479.962728,31.4847831 480.217401,31.2420319 480.443778,30.9672193 L480.443778,30.9672193 L482.820728,25.6358543 L477.455611,25.6358543 L475.010747,31.2695132 C474.897559,31.4344008 474.727777,31.5443258 474.501401,31.5992884 L474.501401,31.5992884 L472.837535,32.0939511 L472.837535,33.7703081 Z"
                      id="路径" fill="#FFFFFF" fill-rule="nonzero"></path>
                <path d="M503.896359,33.7703081 L503.896359,32.0939511 L502.232493,31.5992884 C502.006117,31.5443258 501.836335,31.4344008 501.723146,31.2695132 L501.723146,31.2695132 L499.278283,25.6358543 L493.913165,25.6358543 L496.290116,30.9672193 C496.516492,31.2420319 496.771166,31.4847831 497.054136,31.6954728 C497.337106,31.9061625 497.671011,32.0664698 498.055851,32.1763949 L498.055851,32.1763949 L503.896359,33.7703081 Z"
                      id="路径" fill="#FFFFFF" fill-rule="nonzero"></path>
                <g id="统" transform="translate(506.000000, 8.000000)" fill="#FFFFFF" fill-rule="nonzero">
                    <path d="M1.82886408,21.281474 C2.31567606,21.3926451 2.85780758,21.3741166 3.45525864,21.2258885 L3.45525864,21.2258885 L12.0851073,19.0302587 L12.0851073,17.473863 L6.14378842,19.002466 C5.92251025,19.0580515 5.74548771,19.0163624 5.61272081,18.8773984 C5.4799539,18.7384345 5.46889,18.5855742 5.57952908,18.4188176 L5.57952908,18.4188176 L12.5829832,7.13494837 L7.73699125,7.13494837 L5.71229598,10.3033254 L5.31399528,10.358911 C5.13697274,10.395968 4.99867388,10.358911 4.89909871,10.2477399 C4.79952353,10.1365687 4.79399157,10.0068691 4.88250284,9.85864093 L4.88250284,9.85864093 L10.3923293,0.381302521 L5.54633736,0.381302521 L0.268852978,9.83084815 C0.0697026239,10.2014186 -0.0188086445,10.5580926 0.00331917256,10.9008702 C0.0254469897,11.2436479 0.152681938,11.5401042 0.385024018,11.7902392 C0.617366097,12.0403743 0.932687491,12.2256595 1.3309882,12.3460949 C1.72928891,12.4665302 2.19397307,12.4804266 2.72504068,12.387784 L2.72504068,12.387784 L4.55058559,12.0820634 L0.567578509,18.3354392 C0.279916886,18.7801237 0.158213892,19.2109118 0.202469526,19.6278035 C0.246725161,20.0446953 0.407151835,20.3967372 0.683749548,20.6839292 C0.960347262,20.9711213 1.34205211,21.1703029 1.82886408,21.281474 Z"
                          id="路径"></path>
                    <path d="M12.2016807,26.3098739 L17.6725429,24.8232819 C18.2693643,24.6549885 18.7556631,24.3744994 19.1314395,23.9818147 C19.5072159,23.5891301 19.7172086,23.1216483 19.7614176,22.5793694 L20.6234929,13.3232304 L25.597004,12.7342034 L26.0280417,14.1085998 L31.2668067,14.1085998 L28.9458349,6.8439331 L23.7070698,6.8439331 L25.0996529,11.2195625 L18.5677749,11.948834 C18.4130435,11.9675333 18.2914688,11.9348096 18.2030508,11.8506628 C18.1146328,11.7665161 18.0925283,11.6589953 18.1367373,11.5281004 L20.3913957,4.62806951 L31.7343921,4.62806951 L31.7343921,3.05733077 L24.9338692,3.05733077 L23.0770917,-7.32747196e-15 L17.8383266,-7.32747196e-15 L19.6951041,3.05733077 L12.5000913,3.05733077 L12.5000913,4.62806951 L15.1526306,4.62806951 L12.665875,11.8927362 C12.5553526,12.2106238 12.5387742,12.5051373 12.6161399,12.7762767 C12.6935057,13.0474162 12.8316588,13.2811571 13.0305992,13.4774994 C13.2295396,13.6738417 13.4892674,13.8187611 13.8097826,13.9122574 C14.1302978,14.0057538 14.4784436,14.0338027 14.8542199,13.9964042 L15.4510413,13.9403063 L14.4563391,23.5049833 C14.4121301,23.8041717 14.2131896,24.0192133 13.8595177,24.1501082 L12.2016807,24.6830374 L12.2016807,26.3098739 Z"
                          id="路径"></path>
                    <path d="M31.3343251,26.3098739 L32.2980567,24.7398047 L28.0543679,24.7398047 C27.9258703,24.7398047 27.813435,24.6977493 27.7170618,24.6136385 C27.6206887,24.5295276 27.5725021,24.4313983 27.5725021,24.3192505 L27.5725021,14.8707983 L22.4968487,14.8707983 L22.4968487,24.59962 C22.4968487,25.0855938 22.684241,25.4921296 23.0590255,25.8192273 C23.4338101,26.1463251 23.8996137,26.3098739 24.4564364,26.3098739 L31.3343251,26.3098739 Z"
                          id="路径"></path>
                    <polygon id="路径"
                             points="6.53060939e-13 26.6911765 12.2016807 24.0838917 12.2016807 22.4968487 6.53060939e-13 25.0474534"></polygon>
                </g>
            </g>
        </g>
    </g>
</svg>