<?xml version="1.0" encoding="UTF-8"?>
<svg width="50px" height="50px" viewBox="0 0 50 50" version="1.1" xmlns="http://www.w3.org/2000/svg" xmlns:xlink="http://www.w3.org/1999/xlink">
    <title>logo图形</title>
    <g id="页面1" stroke="none" stroke-width="1" fill="none" fill-rule="evenodd">
        <g id="画板" fill="#FFFFFF" fill-rule="nonzero">
            <g id="logo图形">
                <path d="M29.1176471,18.8235294 L34.1176471,18.9215686 C34.1176471,18.9215686 39.1176471,19.5098039 39.2156863,24.7058824 C39.3137255,29.9019608 34.6078431,30.9803922 34.6078431,30.9803922 C34.6078431,30.9803922 33.1372549,31.1764706 32.254902,31.1764706 C31.372549,31.1764706 29.1176471,31.1764706 29.1176471,31.1764706 L29.0196078,33.627451 L37.4509804,33.4313725 C37.4509804,33.4313725 42.6470588,33.1372549 44.3137255,27.9411765 C45,25.8823529 44.9019608,23.627451 44.0196078,21.5686275 C41.7647059,16.1764706 35.6862745,16.6666667 35.6862745,16.6666667 L29.2156863,16.5686275 L29.1176471,18.8235294 Z" id="路径"></path>
                <path d="M6.47058824,28.5294118 C8.7254902,33.9215686 14.8039216,33.4313725 14.8039216,33.4313725 L20.5882353,33.5294118 L20.5882353,42.6470588 C20.5882353,42.745098 20.6862745,42.8431373 20.7843137,42.9411765 C20.8823529,42.9411765 20.9803922,42.9411765 21.0784314,42.8431373 L29.2156863,32.9411765 C29.7058824,32.3529412 29.7058824,31.5686275 29.2156863,30.9803922 L21.0784314,20.9803922 C20.9803922,20.8823529 20.8823529,20.8823529 20.7843137,20.8823529 C20.6862745,20.8823529 20.5882353,21.1764706 20.5882353,21.2745098 L20.5882353,31.1764706 L16.2745098,31.0784314 C16.2745098,31.0784314 11.2745098,30.4901961 11.1764706,25.2941176 C11.0784314,20.0980392 15.7843137,19.0196078 15.7843137,19.0196078 C15.7843137,19.0196078 17.254902,18.8235294 18.1372549,18.8235294 C19.0196078,18.8235294 21.2745098,18.8235294 21.2745098,18.8235294 L21.372549,16.372549 L13.0392157,16.6666667 C13.0392157,16.6666667 7.84313725,17.0588235 6.17647059,22.254902 C5.49019608,24.3137255 5.58823529,26.5686275 6.47058824,28.5294118 Z" id="路径_1_"></path>
                <path d="M29.2156863,7.05882353 L21.0784314,16.9607843 C20.5882353,17.5490196 20.5882353,18.3333333 21.0784314,18.9215686 L29.2156863,28.9215686 C29.3137255,29.0196078 29.4117647,29.0196078 29.5098039,29.0196078 C29.6078431,29.0196078 29.7058824,28.8235294 29.7058824,28.7254902 L29.7058824,7.25490196 C29.7058824,7.15686275 29.6078431,7.05882353 29.5098039,6.96078431 C29.4117647,6.96078431 29.3137255,6.96078431 29.2156863,7.05882353 Z" id="路径_2_"></path>
                <path d="M25,50 C11.1764706,50 0,38.8235294 0,25 C0,11.1764706 11.1764706,0 25,0 C38.8235294,0 50,11.1764706 50,25 C50,38.8235294 38.8235294,50 25,50 L25,50 Z M25,0.588235294 C11.5686275,0.588235294 0.588235294,11.5686275 0.588235294,25 C0.588235294,38.4313725 11.4705882,49.4117647 25,49.4117647 C38.5294118,49.4117647 49.4117647,38.5294118 49.4117647,25 C49.4117647,11.5686275 38.4313725,0.588235294 25,0.588235294 Z" id="形状"></path>
            </g>
        </g>
    </g>
</svg>