<svg id="图层_1" data-name="图层 1" xmlns="http://www.w3.org/2000/svg" viewBox="0 0 90.16 78.74"><defs><style>.cls-1{fill:#336f6f;}</style></defs><title>无数据</title><path class="cls-1" d="M9,40.27h1.21a.6.6,0,0,1,.59.6.59.59,0,0,1-.59.6H9v1.22a.6.6,0,0,1-.61.58A.56.56,0,0,1,8,43.11a.62.62,0,0,1-.18-.42V41.47H6.6a.6.6,0,0,1,0-1.2H7.81V39.06a.61.61,0,0,1,.6-.59.59.59,0,0,1,.61.59Zm79.33-4.81V34.25a.59.59,0,0,0-.17-.42.63.63,0,0,0-.43-.17.6.6,0,0,0-.6.59v1.21H85.94a.6.6,0,0,0-.42.18.55.55,0,0,0-.17.42.6.6,0,0,0,.59.6h1.21v1.22a.59.59,0,0,0,.6.59.6.6,0,0,0,.6-.59V36.66h1.22a.59.59,0,0,0,.59-.6.61.61,0,0,0-.59-.6ZM44.68,55.3H14.42a1.2,1.2,0,0,1-.85-.36,1.2,1.2,0,0,1,.85-2h5.45a4.79,4.79,0,0,1-.64-2.4V15.62a4.8,4.8,0,0,1,4.82-4.8h3.6V9.61a4.8,4.8,0,0,1,4.81-4.8H61.3a4.8,4.8,0,0,1,4.81,4.8V44.48a4.73,4.73,0,0,1-.64,2.4h6.65a1.21,1.21,0,1,1,0,2.41H57.7v1.2a4.73,4.73,0,0,1-.64,2.4h.64a1.21,1.21,0,0,1,0,2.41H51.38a2.4,2.4,0,0,1-3.77,2.92Zm4.4-2.41H52.9a2.4,2.4,0,0,0,2.4-2.41V15.56A2.33,2.33,0,0,0,53,13.22H24a2.33,2.33,0,0,0-2.32,2.34V50.48A2.41,2.41,0,0,0,24,52.89H42.28l-.62-.62A2.37,2.37,0,0,1,41,50L39.9,48.81a8.43,8.43,0,1,1,1.7-1.7l1.14,1.14a2.38,2.38,0,0,1,2.32.62Zm8.62-6h3.62a2.4,2.4,0,0,0,2.39-2.4V9.62a2.39,2.39,0,0,0-2.39-2.41H32.44a2.41,2.41,0,0,0-2.39,2.41v1.2H52.89a4.8,4.8,0,0,1,4.81,4.8ZM15.33,2.7h1.79a.91.91,0,1,1,0,1.81H15.33V6.3a.91.91,0,0,1-.91.91.87.87,0,0,1-.63-.27.91.91,0,0,1-.27-.64V4.51H11.73a.9.9,0,0,1-.64-.26.91.91,0,0,1,.64-1.55h1.79V.91a.91.91,0,1,1,1.81,0ZM1.2,54.09a1.21,1.21,0,0,1,1.2-1.2H9.62a1.21,1.21,0,0,1,0,2.41H2.4a1.2,1.2,0,0,1-.85-.36,1.21,1.21,0,0,1-.35-.85Zm37.91-7.77a6,6,0,1,0-8.5,0,6,6,0,0,0,8.5,0ZM26.45,18a1.2,1.2,0,0,1,1.2-1.2H40.87a1.2,1.2,0,0,1,0,2.4H27.65a1.17,1.17,0,0,1-.85-.35,1.13,1.13,0,0,1-.35-.85Zm0,6a1.19,1.19,0,0,1,1.19-1.2H46.89a1.2,1.2,0,0,1,0,2.4H27.64A1.18,1.18,0,0,1,26.45,24Zm0,6a1.2,1.2,0,0,1,1.2-1.2h8.41a1.2,1.2,0,0,1,0,2.4H27.65a1.17,1.17,0,0,1-.85-.35,1.13,1.13,0,0,1-.35-.85ZM3.61,22.84a3.61,3.61,0,1,1,3.6-3.61,3.63,3.63,0,0,1-3.6,3.61Zm0-1.8a1.81,1.81,0,0,0,1.56-2.71A1.81,1.81,0,1,0,3.61,21Zm74.52-5.41A3.61,3.61,0,1,1,81.74,12a3.62,3.62,0,0,1-3.61,3.61Zm0-1.81a1.8,1.8,0,1,0-1.8-1.8,1.81,1.81,0,0,0,1.8,1.8Zm0,0"/><path class="cls-1" d="M23.55,78.53H21.62l-6.35-9.82a4.69,4.69,0,0,1-.43-.83h-.05a16.24,16.24,0,0,1,.06,1.77v8.88H13.24V65.9h2l6.18,9.66a9.44,9.44,0,0,1,.52.87h0a15,15,0,0,1-.08-1.84V65.9h1.61Z"/><path class="cls-1" d="M26,74.12a4.85,4.85,0,0,1,1.25-3.53,4.47,4.47,0,0,1,3.38-1.29,4.13,4.13,0,0,1,3.18,1.25,5.55,5.55,0,0,1-.07,6.88,4.32,4.32,0,0,1-3.31,1.31,4.24,4.24,0,0,1-3.23-1.27A4.68,4.68,0,0,1,26,74.12Zm1.63-.05a3.58,3.58,0,0,0,.79,2.46,2.67,2.67,0,0,0,2.11.89,2.56,2.56,0,0,0,2.09-.87,4.79,4.79,0,0,0,0-5,2.57,2.57,0,0,0-2.09-.88,2.64,2.64,0,0,0-2.12.92A3.81,3.81,0,0,0,27.64,74.07Z"/><path class="cls-1" d="M42.37,78.53V65.9H46a7,7,0,0,1,4.78,1.67,5.68,5.68,0,0,1,1.9,4.49,6.11,6.11,0,0,1-1.9,4.7,6.93,6.93,0,0,1-4.91,1.77ZM44,67.35v9.74h1.84a5.17,5.17,0,0,0,3.75-1.31,4.9,4.9,0,0,0,1.35-3.68,4.43,4.43,0,0,0-1.39-3.56,5.39,5.39,0,0,0-3.64-1.19Z"/><path class="cls-1" d="M55.1,70.14a5.71,5.71,0,0,1,3.1-.84q3.27,0,3.27,3.43v5.8H59.88V77.14h0a3,3,0,0,1-2.76,1.6A2.94,2.94,0,0,1,55,78a2.48,2.48,0,0,1-.77-1.91c0-1.69,1-2.67,3-2.94l2.67-.38c0-1.47-.6-2.21-1.82-2.21a4.56,4.56,0,0,0-3,1.09Zm2.67,4.15a2.69,2.69,0,0,0-1.53.56A1.51,1.51,0,0,0,55.82,76,1.36,1.36,0,0,0,56.28,77a1.75,1.75,0,0,0,1.21.41,2.25,2.25,0,0,0,1.72-.74,2.61,2.61,0,0,0,.67-1.84V74Z"/><path class="cls-1" d="M68.44,78.44a2.91,2.91,0,0,1-1.41.29c-1.61,0-2.42-.9-2.42-2.69v-5.2H63.06V69.51h1.55V67.35l1.59-.51v2.67h2.24v1.33H66.2v4.92A2.08,2.08,0,0,0,66.5,77a1.21,1.21,0,0,0,1,.38,1.48,1.48,0,0,0,.93-.3Z"/><path class="cls-1" d="M70.55,70.14a5.74,5.74,0,0,1,3.1-.84q3.27,0,3.27,3.43v5.8H75.33V77.14h0a3,3,0,0,1-2.76,1.6A2.94,2.94,0,0,1,70.44,78a2.48,2.48,0,0,1-.77-1.91c0-1.69,1-2.67,3-2.94l2.67-.38c0-1.47-.6-2.21-1.82-2.21a4.56,4.56,0,0,0-3,1.09Zm2.67,4.15a2.69,2.69,0,0,0-1.53.56A1.51,1.51,0,0,0,71.27,76,1.36,1.36,0,0,0,71.73,77a1.75,1.75,0,0,0,1.21.41,2.25,2.25,0,0,0,1.72-.74,2.61,2.61,0,0,0,.67-1.84V74Z"/></svg>